<svg xmlns="http://www.w3.org/2000/svg" viewBox="0 0 96 96" role="img" aria-label="Tableau logo">
  <rect width="96" height="96" rx="18" fill="#ffffff"/>
  <path d="M48 14v16M40 22h16" stroke="#1f77b4" stroke-width="5" stroke-linecap="round"/>
  <path d="M48 66v16M40 74h16" stroke="#ff7f0e" stroke-width="5" stroke-linecap="round"/>
  <path d="M14 48h16M22 40v16" stroke="#d62728" stroke-width="5" stroke-linecap="round"/>
  <path d="M66 48h16M74 40v16" stroke="#2ca02c" stroke-width="5" stroke-linecap="round"/>
  <path d="M30 30l10 10M40 30L30 40" stroke="#9467bd" stroke-width="5" stroke-linecap="round"/>
  <path d="M56 56l10 10M66 56L56 66" stroke="#17becf" stroke-width="5" stroke-linecap="round"/>
  <path d="M56 40l10-10M66 40L56 30" stroke="#bcbd22" stroke-width="5" stroke-linecap="round"/>
  <path d="M30 66l10-10M40 66L30 56" stroke="#e377c2" stroke-width="5" stroke-linecap="round"/>
  <circle cx="48" cy="48" r="7" fill="#4c78a8"/>
</svg>
